<svg width="24" height="24" viewBox="0 0 24 24" fill="none" xmlns="http://www.w3.org/2000/svg">
<path d="M22.5 4H1.5C0.947715 4 0.5 4.44772 0.5 5V19C0.5 19.5523 0.947715 20 1.5 20H22.5C23.0523 20 23.5 19.5523 23.5 19V5C23.5 4.44772 23.0523 4 22.5 4Z" fill="#48A43F"/>
<path d="M12 8C11.2089 8 10.4355 8.2346 9.77772 8.67412C9.11992 9.11365 8.60723 9.73836 8.30448 10.4693C8.00173 11.2002 7.92252 12.0044 8.07686 12.7804C8.2312 13.5563 8.61217 14.269 9.17157 14.8284C9.73098 15.3878 10.4437 15.7688 11.2196 15.9231C11.9956 16.0775 12.7998 15.9983 13.5307 15.6955C14.2616 15.3928 14.8864 14.8801 15.3259 14.2223C15.7654 13.5645 16 12.7911 16 12C16 10.9391 15.5786 9.92172 14.8284 9.17157C14.0783 8.42143 13.0609 8 12 8ZM12 13.7143C11.6609 13.7143 11.3295 13.6137 11.0476 13.4254C10.7657 13.237 10.546 12.9693 10.4162 12.656C10.2865 12.3428 10.2525 11.9981 10.3187 11.6656C10.3848 11.333 10.5481 11.0276 10.7878 10.7878C11.0276 10.5481 11.333 10.3848 11.6656 10.3187C11.9981 10.2525 12.3428 10.2865 12.656 10.4162C12.9693 10.546 13.237 10.7657 13.4254 11.0476C13.6137 11.3295 13.7143 11.6609 13.7143 12C13.7143 12.4547 13.5337 12.8907 13.2122 13.2122C12.8907 13.5337 12.4547 13.7143 12 13.7143Z" fill="#D6EED4"/>
<path d="M21 7H17C16.8674 7 16.7402 6.94732 16.6464 6.85355C16.5527 6.75979 16.5 6.63261 16.5 6.5C16.5 6.36739 16.5527 6.24021 16.6464 6.14645C16.7402 6.05268 16.8674 6 17 6H21C21.1326 6 21.2598 6.05268 21.3536 6.14645C21.4473 6.24021 21.5 6.36739 21.5 6.5C21.5 6.63261 21.4473 6.75979 21.3536 6.85355C21.2598 6.94732 21.1326 7 21 7Z" fill="#D6EED4"/>
<path d="M21 18H17C16.8674 18 16.7402 17.9473 16.6464 17.8536C16.5527 17.7598 16.5 17.6326 16.5 17.5C16.5 17.3674 16.5527 17.2402 16.6464 17.1464C16.7402 17.0527 16.8674 17 17 17H21C21.1326 17 21.2598 17.0527 21.3536 17.1464C21.4473 17.2402 21.5 17.3674 21.5 17.5C21.5 17.6326 21.4473 17.7598 21.3536 17.8536C21.2598 17.9473 21.1326 18 21 18Z" fill="#D6EED4"/>
<path d="M7 7H3C2.86739 7 2.74021 6.94732 2.64645 6.85355C2.55268 6.75979 2.5 6.63261 2.5 6.5C2.5 6.36739 2.55268 6.24021 2.64645 6.14645C2.74021 6.05268 2.86739 6 3 6H7C7.13261 6 7.25979 6.05268 7.35355 6.14645C7.44732 6.24021 7.5 6.36739 7.5 6.5C7.5 6.63261 7.44732 6.75979 7.35355 6.85355C7.25979 6.94732 7.13261 7 7 7Z" fill="#D6EED4"/>
<path d="M7 18H3C2.86739 18 2.74021 17.9473 2.64645 17.8536C2.55268 17.7598 2.5 17.6326 2.5 17.5C2.5 17.3674 2.55268 17.2402 2.64645 17.1464C2.74021 17.0527 2.86739 17 3 17H7C7.13261 17 7.25979 17.0527 7.35355 17.1464C7.44732 17.2402 7.5 17.3674 7.5 17.5C7.5 17.6326 7.44732 17.7598 7.35355 17.8536C7.25979 17.9473 7.13261 18 7 18Z" fill="#D6EED4"/>
</svg>
