<svg width="8" height="10" viewBox="0 0 8 10" fill="none" xmlns="http://www.w3.org/2000/svg">
<path d="M6.65167 7.23489L4 9.88655L1.34834 7.23489C0.823893 6.71044 0.466744 6.04225 0.322054 5.31482C0.177363 4.5874 0.251628 3.8334 0.535458 3.14818C0.819288 2.46296 1.29993 1.87729 1.91662 1.46524C2.5333 1.05318 3.25832 0.833252 4 0.833252C4.74168 0.833252 5.4667 1.05318 6.08339 1.46524C6.70007 1.87729 7.18072 2.46296 7.46455 3.14818C7.74838 3.8334 7.82264 4.5874 7.67795 5.31482C7.53326 6.04225 7.17611 6.71044 6.65167 7.23489ZM4 6.24989C4.44203 6.24989 4.86595 6.07429 5.17851 5.76173C5.49107 5.44917 5.66667 5.02525 5.66667 4.58322C5.66667 4.14119 5.49107 3.71727 5.17851 3.40471C4.86595 3.09215 4.44203 2.91655 4 2.91655C3.55797 2.91655 3.13405 3.09215 2.82149 3.40471C2.50893 3.71727 2.33334 4.14119 2.33334 4.58322C2.33334 5.02525 2.50893 5.44917 2.82149 5.76173C3.13405 6.07429 3.55797 6.24989 4 6.24989ZM4 5.41655C3.77899 5.41655 3.56703 5.32876 3.41075 5.17248C3.25447 5.01619 3.16667 4.80423 3.16667 4.58322C3.16667 4.36221 3.25447 4.15024 3.41075 3.99396C3.56703 3.83768 3.77899 3.74989 4 3.74989C4.22102 3.74989 4.43298 3.83768 4.58926 3.99396C4.74554 4.15024 4.83334 4.36221 4.83334 4.58322C4.83334 4.80423 4.74554 5.01619 4.58926 5.17248C4.43298 5.32876 4.22102 5.41655 4 5.41655Z" fill="#151414"/>
</svg>
