<svg width="10" height="10" viewBox="0 0 10 10" fill="none" xmlns="http://www.w3.org/2000/svg">
<path d="M4.58329 7.47409C3.74276 7.36714 2.97448 6.94414 2.43462 6.29108C1.89476 5.63802 1.62383 4.80389 1.67688 3.95824C1.72994 3.11259 2.10301 2.31887 2.72027 1.73841C3.33753 1.15795 4.15265 0.834303 4.99996 0.833253C5.84831 0.832621 6.66498 1.15548 7.28357 1.73604C7.90216 2.31659 8.27611 3.11117 8.32923 3.95785C8.38236 4.80454 8.11065 5.63962 7.56948 6.29295C7.02831 6.94627 6.2584 7.36867 5.41663 7.47409V8.33825C7.06079 8.37659 8.33329 8.6395 8.33329 8.95825C8.33329 9.30325 6.84079 9.58325 4.99996 9.58325C3.15913 9.58325 1.66663 9.30325 1.66663 8.95825C1.66663 8.6395 2.93913 8.37659 4.58329 8.33825V7.47409ZM4.99996 4.99992C5.22097 4.99992 5.43293 4.91212 5.58922 4.75584C5.7455 4.59956 5.83329 4.3876 5.83329 4.16659C5.83329 3.94557 5.7455 3.73361 5.58922 3.57733C5.43293 3.42105 5.22097 3.33325 4.99996 3.33325C4.77895 3.33325 4.56698 3.42105 4.4107 3.57733C4.25442 3.73361 4.16663 3.94557 4.16663 4.16659C4.16663 4.3876 4.25442 4.59956 4.4107 4.75584C4.56698 4.91212 4.77895 4.99992 4.99996 4.99992Z" fill="#151414"/>
</svg>
